<svg xmlns="http://www.w3.org/2000/svg" fill="none" viewBox="0 0 195 59" height="59" width="195">
<path fill="#E21D38" d="M30.4536 8.7583H20.492V24.6459H4.91907V35.1572H20.492V51.1052H30.4536V35.1572H46.0266V24.6459H30.4536V8.7583Z" clip-rule="evenodd" fill-rule="evenodd"></path>
<path fill="#E21D38" d="M87.6113 27.7529H70.9627V36.7062H77.8628C77.8628 40.0723 77.3749 43.6081 76.6003 44.9941C75.8257 46.3307 74.6036 47.414 72.7538 47.414C71.5058 47.414 69.8093 47.0896 69.0782 46.5451C68.39 45.9511 67.65 45.0712 67.263 43.7842C66.9189 42.4477 66.4385 39.6928 66.3527 37.6137C66.267 35.5346 66.2236 32.9853 66.2236 29.9658C66.2236 26.6987 66.267 24.0008 66.3527 21.8722C66.4385 19.6943 66.9776 17.4057 67.3217 16.168C67.7088 14.9305 68.2483 14.0601 68.9367 13.5651C69.6254 13.07 70.5622 12.5847 71.81 12.5847C73.66 12.5847 75.3266 13.0661 76.1012 14.3532C76.8757 15.5907 77.8628 18.837 77.8628 22.1041H87.6113C87.6113 18.738 87.2453 15.8916 86.5143 13.5651C85.8254 11.189 84.8148 9.28315 83.4811 7.84761C82.1469 6.36257 80.512 5.29828 78.5758 4.65476C76.683 3.96175 74.5103 3.61523 72.058 3.61523C69.2179 3.61523 66.7873 4.06075 64.7648 4.95177C62.7858 5.8428 61.1509 7.30309 59.8601 9.33265C58.6126 11.3622 57.7091 14.0601 57.1499 17.4262C56.5905 20.7921 56.3108 24.9503 56.3108 29.9006C56.3108 34.9002 56.5905 39.0831 57.1499 42.4492C57.7091 45.7658 58.6126 48.4635 59.8601 50.5426C61.1509 52.5722 62.7858 54.0325 64.7648 54.9235C66.7873 55.765 69.2179 56.1857 72.058 56.1857C74.5103 56.1857 76.683 55.864 78.5758 55.2205C80.512 54.5275 82.1469 53.4385 83.4811 51.9534C84.8148 50.4683 85.8254 48.5378 86.5143 46.1618C87.2453 43.7361 87.6113 40.7661 87.6113 37.2516V27.7529ZM159.838 27.7529H143.19V36.7062H150.089C150.089 40.0723 149.603 43.6081 148.827 44.9941C148.053 46.3307 146.831 47.414 144.981 47.414C143.733 47.414 142.036 47.0896 141.305 46.5451C140.617 45.9511 139.877 45.0712 139.49 43.7842C139.146 42.4477 138.666 39.6928 138.58 37.6137C138.494 35.5346 138.451 32.9853 138.451 29.9658C138.451 26.6987 138.494 24.0008 138.58 21.8722C138.666 19.6943 139.205 17.4057 139.549 16.168C139.936 14.9305 140.476 14.0601 141.164 13.5651C141.853 13.07 142.789 12.5847 144.037 12.5847C145.888 12.5847 147.553 13.0661 148.329 14.3532C149.103 15.5907 150.089 18.837 150.089 22.1041H159.838C159.838 18.738 159.472 15.8916 158.742 13.5651C158.053 11.189 157.041 9.28315 155.709 7.84761C154.374 6.36257 152.74 5.29828 150.803 4.65476C148.909 3.96175 146.737 3.61523 144.285 3.61523C141.445 3.61523 139.014 4.06075 136.992 4.95177C135.013 5.8428 133.378 7.30309 132.087 9.33265C130.84 11.3622 129.936 14.0601 129.377 17.4262C128.817 20.7921 128.538 24.9503 128.538 29.9006C128.538 34.9002 128.817 39.0831 129.377 42.4492C129.936 45.7658 130.84 48.4635 132.087 50.5426C133.378 52.5722 135.013 54.0325 136.992 54.9235C139.014 55.765 141.445 56.1857 144.285 56.1857C146.737 56.1857 148.909 55.864 150.803 55.2205C152.74 54.5275 154.374 53.4385 155.709 51.9534C157.041 50.4683 158.053 48.5378 158.742 46.1618C159.472 43.7361 159.838 40.7661 159.838 37.2516V27.7529ZM93.0121 4.22248H101.938L114.505 34.319L113.771 4.22248H123.138V55.5225H114.858L101.938 25.0027L102.496 55.5225H93.0121V4.22248ZM176.36 4.34354H165.247V55.4017H174.849V35.6196H177.962L184.869 55.4017H194.904L187.181 34.1073C189.509 32.4746 191.431 30.504 192.319 28.1788C193.209 25.8534 193.57 23.7377 193.57 20.5218C193.57 17.7017 193.317 15.2775 192.807 13.249C192.342 11.1711 191.454 9.48895 190.141 8.2026C188.87 6.86677 187.114 5.90202 184.869 5.30831C182.669 4.66513 179.832 4.34354 176.36 4.34354ZM180.233 26.4589C179.515 26.6568 178.584 26.7557 177.439 26.7557H174.849V13.249H177.081C178.436 13.249 179.493 13.4922 180.34 13.6901C181.187 13.888 182.193 14.4052 182.659 14.9C183.126 15.3948 183.518 16.7399 183.686 17.5316C183.856 18.3232 183.863 19.3992 183.863 20.5866C183.863 21.5436 183.668 22.4355 183.504 23.1859C183.464 23.3665 183.426 23.5389 183.393 23.7021C183.228 24.4756 182.709 25.0267 182.252 25.5131L182.219 25.5472C181.796 25.9925 180.996 26.261 180.233 26.4589Z" clip-rule="evenodd" fill-rule="evenodd"></path>
</svg>
